<?xml version="1.0" encoding="UTF-8"?>
<svg width="103px" height="114px" viewBox="0 0 103 114" version="1.1" xmlns="http://www.w3.org/2000/svg" xmlns:xlink="http://www.w3.org/1999/xlink">
    <!-- Generator: Sketch 40.3 (33839) - http://www.bohemiancoding.com/sketch -->
    <title>Group 13 Copy 7</title>
    <desc>Created with Sketch.</desc>
    <defs>
        <linearGradient x1="50%" y1="-6.30689612%" x2="50%" y2="171.825894%" id="linearGradient-1">
            <stop stop-color="#655F5F" offset="0%"></stop>
            <stop stop-color="#474545" offset="100%"></stop>
        </linearGradient>
    </defs>
    <g id="Page-1" stroke="none" stroke-width="1" fill="none" fill-rule="evenodd">
        <g id="Group-13-Copy-7" transform="translate(2.000000, 0.000000)">
            <g id="Group-12">
                <path d="M51.3412676,79.8690096 C49.7738264,85.6968414 47.8235402,95.0436716 47.3185224,101.733612 C47.2289671,103.172184 47.1612222,104.618651 47.076101,106.065773 C47.0474692,106.579756 46.8811051,107.067894 46.5065218,107.507165 C45.9238922,108.206974 44.7525557,108.281957 43.6608919,107.643299 C42.4826089,106.933093 41.7469783,106.031234 41.1322252,105.097429 C38.932193,101.619019 37.2106149,97.8936416 35.5080646,93.9706321 C32.239854,85.8900364 29.1887647,77.104278 26.1487836,67.5680414 C26.1096159,67.4401717 26.0713106,67.312557 25.8979611,67.0988999 C25.7622716,67.948377 25.6129518,68.7916467 25.4975936,69.662976 C24.2157793,80.5484065 23.8292503,92.1490843 24.5068065,104.016716 C24.6229884,105.787391 24.8014215,107.554128 24.9380812,109.310599 C24.9851138,109.903242 24.9343033,110.488101 24.6675301,111.040724 C24.2017615,112.019615 23.2167054,112.322604 22.0696478,111.792709 C21.1683541,111.365177 20.5673286,110.678219 20.0790876,109.89256 C18.4051728,107.119827 17.1843245,104.0844 15.7999496,100.980553 C12.165032,92.2888086 9.05167854,82.754909 6.21125306,72.4858391 C4.7700555,66.9888663 3.44661071,61.3381931 2.21525298,55.5489598 C1.47968418,52.0018773 0.702378892,48.3614262 0.284261581,44.8913852 C-0.0605162589,41.9836544 -0.0309672192,39.4288739 1.22174756,38.2498497 C2.15163678,37.4277585 3.66405523,38.0542731 5.4385088,39.3775649 C6.20286965,39.9463307 6.77109819,40.8691622 6.97790766,41.8175517 C7.34701228,43.497335 7.43854653,44.9616168 7.66061281,46.5141714 C8.18272683,50.1154305 8.5374395,53.562024 9.19415268,57.1581785 C9.91896863,61.0437157 10.5661016,64.8245719 11.3265155,68.587794 C11.9763417,71.7340923 12.6690843,74.8420415 13.4053571,77.9066234 C14.6609262,82.9847074 16.1465881,87.9126424 17.7452761,92.6520575 C18.7989277,95.6666723 19.9720798,98.5800947 21.387319,101.385195 C21.3730967,100.426191 21.3610781,99.4669873 21.3481734,98.5071947 C21.2804115,88.556477 21.3275812,78.6334523 21.5096866,68.8023094 C21.6149648,64.957005 21.6617019,61.078154 21.902605,57.3618898 C21.9686232,56.4015619 22.3021161,55.7283056 22.793685,55.2093054 C23.6192569,54.3727711 26.0938088,55.6574218 27.9314521,57.7115405 C28.2586127,57.9283972 28.4168293,58.2191615 28.5789314,58.5069717 C29.8954606,60.3317839 30.6255856,61.9118634 31.0696245,63.3677739 C32.2775307,67.2440532 33.3062229,70.912921 34.3045623,74.4673422 C35.1572308,77.4192388 36.090541,80.3294159 36.944115,83.1382321 C38.0732009,86.7401999 39.3940649,90.2600195 40.7353758,93.6481858 C41.5936169,95.7455097 42.5700951,97.7945874 43.6070148,99.7843603 C43.8593471,100.259722 44.1463061,100.730903 44.5363844,101.215524 C44.5593301,100.902284 44.5902346,100.590923 44.6054805,100.276322 C44.9079246,94.8935915 45.2530156,89.5813273 45.7566616,84.410939 C46.1493514,80.9332248 46.8058725,77.6739309 47.914572,74.8197402 C48.2263847,74.0671375 48.6807508,73.4406816 49.9776278,73.5961637 C51.4835034,73.8117976 53.5312523,75.1936077 55.0858749,76.9797523 C56.0597095,78.0723923 56.6707178,79.0188902 57.0937463,79.8690096 C58.3695244,82.3751109 58.9657928,84.4870963 59.7421593,86.631634 C60.5859917,88.8958472 61.4777894,91.1142617 62.5322802,93.3177555 C63.2333767,94.7412107 63.9478544,96.1348181 64.847818,97.5335948 C66.7883009,100.420143 69.2268265,103.14751 73.1289972,105.659232 C77.7296547,108.301602 83.5637847,109.941892 90.5238271,110.923209 C92.7873036,111.257504 82.2078416,110.541223 75.3066694,108.281258 C74.4533057,108.057786 74.1452701,107.861667 73.612706,107.643485 C68.2387464,105.23309 64.3895983,102.277304 61.2274891,98.9041593 C59.4727329,96.9006237 58.0502438,94.8393684 56.7638708,92.7091914 C55.0342149,89.7191309 53.6770573,86.6984234 52.6198034,83.666202 C52.2124138,82.468253 51.8757407,81.2876189 51.5076569,80.0794052" id="Fill-1" stroke="#555555" stroke-width="3" fill="#555555"></path>
                <g id="Group-11" transform="translate(82.985575, 0.000000)">
                    <g id="Group-10">
                        <rect id="Rectangle-2" fill="url(#linearGradient-1)" x="0" y="0" width="17.3176447" height="94.5915067"></rect>
                        <g id="Group-9" transform="translate(0.000000, 62.083301)" fill="#FF6161">
                            <polygon id="Fill-4" points="17.3176447 0.200503612 17.3176447 5.22584127 10.4757556 14.8833966 8.69572883 17.3959986 0 5.12151686 0 0.117685257 8.69572883 12.3707945"></polygon>
                            <polygon id="Fill-6" points="17.3176447 14.2825387 10.7785778 22.9239121 17.3176447 22.9239121 17.3176447 26.9257058 0 26.9257058 0 22.9239121 6.51824793 22.9239121 0 14.310051 0 9.66797024 0.0236579846 9.63670623 8.64841286 21.03419 17.2599193 9.65421407 17.3176447 9.73049827"></polygon>
                            <polygon id="Fill-8" points="0 32.5082059 8.61150641 49.7972055 17.3025983 32.5082059"></polygon>
                        </g>
                    </g>
                    <rect id="Rectangle-3" fill="#FF6161" x="0" y="11.0180806" width="17.3176447" height="3.90964152"></rect>
                </g>
            </g>
        </g>
    </g>
</svg>