<?xml version="1.0" encoding="UTF-8"?>
<svg width="153px" height="170px" viewBox="0 0 153 170" version="1.1" xmlns="http://www.w3.org/2000/svg" xmlns:xlink="http://www.w3.org/1999/xlink">
    <!-- Generator: Sketch 40.3 (33839) - http://www.bohemiancoding.com/sketch -->
    <title>Group 13 Copy 5</title>
    <desc>Created with Sketch.</desc>
    <defs>
        <linearGradient x1="50%" y1="-6.30689612%" x2="50%" y2="171.825894%" id="linearGradient-1">
            <stop stop-color="#2F2F2F" offset="0%"></stop>
            <stop stop-color="#474545" offset="100%"></stop>
        </linearGradient>
    </defs>
    <g id="Page-1" stroke="none" stroke-width="1" fill="none" fill-rule="evenodd">
        <g id="Group-13-Copy-5" transform="translate(2.000000, 0.000000)">
            <g id="Group-12">
                <path d="M76.9209353,119.675447 C74.5725506,128.40785 71.6505769,142.413108 70.893945,152.43729 C70.7597706,154.592842 70.6582734,156.760223 70.5307424,158.928586 C70.4878454,159.698737 70.2385941,160.43016 69.6773828,161.088363 C68.8044707,162.136954 67.0495413,162.249309 65.4139798,161.292345 C63.648643,160.228176 62.5465004,158.876833 61.62546,157.477623 C58.3293097,152.265585 55.7499928,146.683493 53.1991839,140.805269 C48.3026587,128.697332 43.7314306,115.532782 39.1768451,101.243719 C39.118163,101.052119 39.0607729,100.860902 38.8010558,100.540759 C38.597762,101.813612 38.3740469,103.077165 38.201214,104.382761 C36.2807635,120.693453 35.7016549,138.075868 36.7167888,155.858286 C36.8908558,158.511459 37.1581893,161.158732 37.3629366,163.790623 C37.4334022,164.678636 37.3572766,165.554988 36.9575893,166.383035 C36.2597617,167.849802 34.783923,168.3038 33.0653689,167.509808 C31.7150252,166.869195 30.8145519,165.839859 30.0830553,164.66263 C27.5751491,160.507977 25.7460396,155.959703 23.6719301,151.30891 C18.225994,138.285231 13.5614801,123.999668 9.30587454,108.61253 C7.1466317,100.375885 5.16380939,91.9089357 3.3189545,83.2343685 C2.21690457,77.9194325 1.05232387,72.4645932 0.425888719,67.2650958 C-0.090667166,62.908162 -0.0463959613,59.0800878 1.83045665,57.3134421 C3.22364292,56.0816234 5.48959089,57.0203907 8.14812728,59.0032065 C9.29331428,59.8554433 10.1446503,61.2382107 10.4544981,62.6592744 C11.007501,65.1762558 11.1446402,67.3703305 11.4773462,69.6966729 C12.2595921,75.0927871 12.7910327,80.2571508 13.7749389,85.6456163 C14.8608786,91.4676917 15.8304315,97.1329135 16.9697049,102.771712 C17.9432929,107.486115 18.9811794,112.143055 20.0842842,116.735014 C21.9654131,124.343998 24.1912737,131.727998 26.5864732,138.829521 C28.1650837,143.34661 29.9227333,147.712072 32.0430846,151.915224 C32.0217763,150.478257 32.0037697,149.040989 31.9844356,147.602839 C31.8829128,132.692718 31.9535837,117.824092 32.2264191,103.093142 C32.3841499,97.3313508 32.4541727,91.519294 32.8151007,85.9508565 C32.914011,84.5119046 33.4136594,83.5030996 34.1501418,82.7254316 C35.3870369,81.4719715 39.0944804,83.3968876 41.8476895,86.4747719 C42.3378507,86.7997092 42.5748953,87.2353896 42.8177612,87.6666433 C44.7902224,90.4009357 45.8841162,92.7685213 46.5493879,94.9500525 C48.3591069,100.758256 49.9003226,106.255675 51.3960628,111.581607 C52.6735548,116.004719 54.0718665,120.365318 55.3507152,124.574038 C57.0423435,129.971214 59.0212992,135.2453 61.030889,140.322116 C62.31673,143.464739 63.7797172,146.53507 65.3332596,149.516539 C65.7113109,150.228819 66.141241,150.934835 66.7256673,151.66099 C66.7600453,151.191632 66.8063473,150.72509 66.8291891,150.253693 C67.2823193,142.188228 67.7993444,134.22835 68.5539211,126.481058 C69.14226,121.270063 70.1258785,116.386348 71.7869633,112.109639 C72.2541299,110.981942 72.934874,110.043262 74.8778917,110.276236 C77.134037,110.599341 80.2020321,112.669841 82.5312115,115.346194 C83.990238,116.983402 84.905668,118.401631 85.5394611,119.675447 C87.4508679,123.43058 88.344214,126.595172 89.5073882,129.80854 C90.7716417,133.201229 92.1077582,136.525294 93.6876261,139.827001 C94.7380286,141.959901 95.8084792,144.048078 97.1568301,146.144 C100.064116,150.469193 103.717584,154.55587 109.563926,158.319426 C116.456761,162.278745 125.197619,164.736549 135.625351,166.206951 C139.016555,166.707858 123.166107,165.634585 112.826576,162.24826 C111.548043,161.913412 111.086535,161.619547 110.288633,161.292624 C102.237215,157.680896 96.4703124,153.251957 91.7327513,148.197649 C89.103726,145.195558 86.9725127,142.10698 85.0452324,138.915131 C82.4538132,134.434834 80.4204814,129.908617 78.8364737,125.365147 C78.2261111,123.570144 77.721698,121.801086 77.1702245,119.990703" id="Fill-1" stroke="#2F2F2F" stroke-width="3" fill="#2F2F2F"></path>
                <g id="Group-11" transform="translate(124.331329, 0.000000)">
                    <g id="Group-10">
                        <rect id="Rectangle-2" fill="url(#linearGradient-1)" x="0" y="0" width="25.9457838" height="141.735585"></rect>
                        <g id="Group-9" transform="translate(0.000000, 93.025402)" fill="#FF6161">
                            <polygon id="Fill-4" points="25.9457838 0.300433917 25.9457838 7.83038243 15.6950725 22.3012298 13.0281862 26.0661039 0 7.67406309 0 0.17633918 13.0281862 18.5363556"></polygon>
                            <polygon id="Fill-6" points="25.9457838 21.4009064 16.1487693 34.3491103 25.9457838 34.3491103 25.9457838 40.3453841 0 40.3453841 0 34.3491103 9.7658229 34.3491103 0 21.4421307 0 14.486453 0.0354450599 14.4396072 12.9572961 31.5175573 25.8592979 14.4658409 25.9457838 14.5801448"></polygon>
                            <polygon id="Fill-8" points="0 48.7101828 12.9020018 74.6159598 25.9232408 48.7101828"></polygon>
                        </g>
                    </g>
                    <rect id="Rectangle-3" fill="#FF6161" x="0" y="16.5094538" width="25.9457838" height="5.85819328"></rect>
                </g>
            </g>
        </g>
    </g>
</svg>