<?xml version="1.0" encoding="UTF-8"?>
<svg width="123px" height="109px" viewBox="0 0 123 109" version="1.1" xmlns="http://www.w3.org/2000/svg" xmlns:xlink="http://www.w3.org/1999/xlink">
    <!-- Generator: Sketch 40.3 (33839) - http://www.bohemiancoding.com/sketch -->
    <title>Group 8 Copy</title>
    <desc>Created with Sketch.</desc>
    <defs></defs>
    <g id="Page-1" stroke="none" stroke-width="1" fill="none" fill-rule="evenodd">
        <g id="Group-8-Copy">
            <path d="M83.8018933,0 L61.4771502,22.6168958 L39.3568399,0 L0,0 L0,109 L123,109 L123,0 L83.8018933,0 Z M40.8379447,42.5655876 L40.8379447,33.5120621 L40.8462095,33.4927273 L63.1690079,55.6818404 L85.3221344,33.6619069 L85.3221344,42.754102 L67.7360514,60.2279379 L63.1690079,64.7740355 L40.8379447,42.5655876 Z M40.8379447,74.4390244 L57.5564644,74.4390244 L40.8379447,57.5500665 L40.8379447,48.578714 L40.8872905,48.5182927 L63.0362846,70.5454767 L85.1653458,48.5523703 L85.3221344,48.6995565 L85.3221344,57.4971375 L68.4998182,74.4390244 L85.3221344,74.4390244 L85.3221344,82.172949 L40.8379447,82.172949 L40.8379447,74.4390244 Z M40.8129071,86.2815965 L85.2579605,86.2815965 L62.9334605,108.898492 L40.8129071,86.2815965 Z" id="Page-1" fill="#2F2F2F"></path>
            <polygon id="Fill-2" fill="#FF6161" points="40.8379447 86.2815965 62.958498 108.898734 85.2832411 86.2815965"></polygon>
        </g>
    </g>
</svg>